<svg width="58" height="58" viewBox="0 0 58 58" fill="none" xmlns="http://www.w3.org/2000/svg">
<path d="M25.28 39.7946C24.8107 39.6666 24.5547 39.1973 24.6827 38.7706C24.8107 38.3013 25.28 38.0453 25.7493 38.1733C26.2187 38.3013 26.4747 38.7706 26.3467 39.1973C26.2613 39.5813 25.92 39.8373 25.536 39.8373C25.408 39.7946 25.3227 39.7946 25.28 39.7946Z" fill="#027AFD"/>
<path d="M26.2613 36.0826C25.792 35.9546 25.536 35.4853 25.664 35.016C25.792 34.5466 26.2613 34.2906 26.688 34.4186C27.1573 34.5466 27.4133 35.016 27.2853 35.4853C27.2 35.8693 26.8587 36.1253 26.4747 36.1253C26.3893 36.1253 26.3467 36.0826 26.2613 36.0826Z" fill="#027AFD"/>
<path d="M21.5253 24.3921C21.1413 24.1361 21.0133 23.6241 21.2693 23.1974C21.5253 22.8134 22.0373 22.6854 22.464 22.9414C22.848 23.1974 22.976 23.7094 22.72 24.1361C22.5493 24.3921 22.2933 24.5201 21.9947 24.5201C21.824 24.5627 21.6533 24.5201 21.5253 24.3921Z" fill="#027AFD"/>
<path d="M18.2827 22.344C17.8987 22.088 17.7707 21.576 18.0267 21.1493C18.2827 20.7653 18.7947 20.6373 19.2213 20.8933C19.6053 21.1493 19.7333 21.6613 19.4773 22.088C19.3067 22.344 19.0507 22.472 18.752 22.472C18.5813 22.472 18.4533 22.4293 18.2827 22.344Z" fill="#027AFD"/>
<path d="M34.9227 25.5866C34.752 25.16 35.008 24.648 35.4347 24.5199C35.8613 24.3493 36.3733 24.6053 36.544 25.0319C36.7147 25.4586 36.4587 25.9706 36.032 26.0986C35.9467 26.1413 35.8613 26.1413 35.7333 26.1413C35.3493 26.1413 35.008 25.928 34.9227 25.5866Z" fill="#027AFD"/>
<path d="M38.5067 24.3066C38.336 23.88 38.592 23.368 39.0187 23.24C39.4454 23.0693 39.9574 23.3253 40.0854 23.752C40.256 24.1786 40 24.6906 39.5734 24.8613C39.488 24.904 39.4027 24.904 39.2747 24.904C38.976 24.904 38.6347 24.648 38.5067 24.3066Z" fill="#027AFD"/>
<path d="M16.832 32.0293C16.6613 31.6026 16.9173 31.0906 17.344 30.92C17.7707 30.7493 18.2827 31.0053 18.4533 31.432C18.624 31.8586 18.368 32.3706 17.9413 32.4986C17.856 32.5413 17.728 32.5413 17.6427 32.5413C17.3013 32.6266 16.96 32.3706 16.832 32.0293Z" fill="#027AFD"/>
<path d="M20.4587 30.7493C20.288 30.3226 20.544 29.8106 20.9707 29.6399C21.3974 29.4693 21.9094 29.7253 22.0374 30.1519C22.208 30.5786 21.952 31.0906 21.5254 31.2613C21.44 31.304 21.312 31.304 21.2267 31.304C20.928 31.304 20.5867 31.0906 20.4587 30.7493Z" fill="#027AFD"/>
<path d="M27.6266 20.2106C27.6266 19.7413 28.0106 19.3573 28.48 19.3573C28.9493 19.3573 29.3333 19.7413 29.3333 20.2106C29.3333 20.68 28.9493 21.064 28.48 21.064C28.0106 21.064 27.6266 20.68 27.6266 20.2106Z" fill="#027AFD"/>
<path d="M27.6266 16.3707C27.6266 15.9013 28.0106 15.5173 28.48 15.5173C28.9493 15.5173 29.3333 15.9013 29.3333 16.3707C29.3333 16.84 28.9493 17.224 28.48 17.224C28.0106 17.224 27.6266 16.84 27.6266 16.3707Z" fill="#027AFD"/>
<path d="M36.032 36.6373C35.6907 36.296 35.6907 35.784 36.032 35.4426C36.3733 35.1013 36.8853 35.1013 37.2267 35.4426C37.568 35.784 37.568 36.296 37.2267 36.6373C37.056 36.808 36.8427 36.8933 36.6293 36.8933C36.416 36.8507 36.2027 36.808 36.032 36.6373Z" fill="#027AFD"/>
<path d="M33.344 33.9067C33.0027 33.5654 33.0027 33.0107 33.344 32.7121C33.6853 32.3707 34.1973 32.3707 34.5387 32.7121C34.88 33.0534 34.88 33.5654 34.5387 33.9067C34.368 34.0774 34.1547 34.1627 33.9413 34.1627C33.728 34.1627 33.472 34.0774 33.344 33.9067Z" fill="#027AFD"/>
<path d="M40.4693 43.2507C39.616 43.2507 38.72 42.9094 38.08 42.2694C36.7573 40.9467 36.7573 38.7707 38.08 37.4481C39.4027 36.1254 41.5787 36.1254 42.9013 37.4481C44.224 38.7707 44.224 40.9467 42.9013 42.2694C42.2187 42.9094 41.3653 43.2507 40.4693 43.2507ZM39.2747 41.032C39.9147 41.672 41.024 41.672 41.664 41.032C42.304 40.392 42.304 39.2827 41.664 38.6427C41.024 38.0027 39.9147 38.0027 39.2747 38.6427C38.6347 39.3254 38.6347 40.392 39.2747 41.032Z" fill="#027AFD"/>
<path d="M12.6507 22.344C10.0907 22.344 8 20.2533 8 17.6933C8 15.1333 10.0907 13.0427 12.6507 13.0427C15.2107 13.0427 17.3013 15.1333 17.3013 17.6933C17.3013 20.2533 15.2107 22.344 12.6507 22.344ZM12.6507 14.792C11.0293 14.792 9.70667 16.1147 9.70667 17.736C9.70667 19.3573 11.0293 20.68 12.6507 20.68C14.272 20.68 15.5947 19.3573 15.5947 17.736C15.5947 16.1147 14.272 14.792 12.6507 14.792Z" fill="#027AFD"/>
<path d="M46.144 26.2693C43.584 26.2693 41.4933 24.1786 41.4933 21.6186C41.4933 19.0586 43.584 16.968 46.144 16.968C48.704 16.968 50.7947 19.1013 50.7947 21.6613C50.7947 24.2213 48.704 26.2693 46.144 26.2693ZM46.144 18.7173C44.5227 18.7173 43.2 20.04 43.2 21.6613C43.2 23.2826 44.5227 24.6053 46.144 24.6053C47.7654 24.6053 49.088 23.2826 49.088 21.6613C49.088 20.04 47.7654 18.7173 46.144 18.7173Z" fill="#027AFD"/>
<path d="M23.744 50.1627C21.184 50.1627 19.0933 48.072 19.0933 45.512C19.0933 42.952 21.184 40.8613 23.744 40.8613C26.304 40.8613 28.3947 42.952 28.3947 45.512C28.3947 48.072 26.304 50.1627 23.744 50.1627ZM23.744 42.6107C22.1227 42.6107 20.8 43.9333 20.8 45.5547C20.8 47.176 22.1227 48.4987 23.744 48.4987C25.3653 48.4987 26.688 47.176 26.688 45.5547C26.688 43.9333 25.3653 42.6107 23.744 42.6107Z" fill="#027AFD"/>
<path d="M28.48 33.1813C27.1147 33.1813 25.7494 32.6693 24.6827 31.6027C22.592 29.512 22.592 26.0987 24.6827 24.008C26.7734 21.9173 30.1867 21.9173 32.2774 24.008C34.368 26.0987 34.368 29.512 32.2774 31.6027C31.2534 32.6267 29.888 33.1813 28.48 33.1813ZM25.92 30.3653C27.328 31.7733 29.6747 31.7733 31.0827 30.3653C32.4907 28.9573 32.4907 26.6107 31.0827 25.2027C29.6747 23.7947 27.328 23.7947 25.92 25.2027C24.4694 26.6107 24.4694 28.9573 25.92 30.3653Z" fill="#027AFD"/>
<path d="M11.7547 37.2773C9.87735 37.2773 8.34135 35.7413 8.34135 33.864C8.34135 31.9867 9.87735 30.4507 11.7547 30.4507C13.632 30.4507 15.168 31.9867 15.168 33.864C15.168 35.7413 13.632 37.2773 11.7547 37.2773ZM11.7547 32.1573C10.816 32.1573 10.048 32.9253 10.048 33.864C10.048 34.8027 10.816 35.5707 11.7547 35.5707C12.6934 35.5707 13.4614 34.8027 13.4614 33.864C13.4614 32.9253 12.6934 32.1573 11.7547 32.1573Z" fill="#027AFD"/>
<path d="M28.48 14.5787C26.6027 14.5787 25.0667 13.0427 25.0667 11.1654C25.0667 9.28808 26.6027 7.75208 28.48 7.75208C30.3573 7.75208 31.8933 9.28808 31.8933 11.1654C31.8933 13.0854 30.3573 14.5787 28.48 14.5787ZM28.48 9.50141C27.5413 9.50141 26.7733 10.2694 26.7733 11.2081C26.7733 12.1467 27.5413 12.9147 28.48 12.9147C29.4187 12.9147 30.1867 12.1467 30.1867 11.2081C30.1867 10.2694 29.4187 9.50141 28.48 9.50141Z" fill="#027AFD"/>
</svg>
