<svg width="100" height="20" viewBox="0 0 100 20" fill="none" xmlns="http://www.w3.org/2000/svg">
<path d="M99.0857 8.73215H99.1819C99.3022 8.73215 99.3985 8.6903 99.3985 8.57705C99.3985 8.49828 99.3263 8.4195 99.1819 8.4195H99.0857V8.72477V8.73215ZM99.0857 9.23437H98.9413V8.32841C99.0135 8.32841 99.0857 8.30379 99.1819 8.30379C99.3263 8.30379 99.3985 8.33333 99.4706 8.37272C99.5188 8.41457 99.5428 8.47366 99.5428 8.56228C99.5428 8.68045 99.4706 8.75185 99.3744 8.78139C99.4466 8.80601 99.4947 8.86755 99.5188 9.00049C99.5428 9.14082 99.5669 9.19498 99.5669 9.22452H99.4225C99.3985 9.19498 99.3744 9.11374 99.3744 8.99311C99.3503 8.8774 99.2782 8.83555 99.1819 8.83555H99.0857V9.22452V9.23437ZM99.23 8.0773C98.8691 8.0773 98.5804 8.38257 98.5804 8.76169C98.5804 9.1482 98.8691 9.45101 99.23 9.45101C99.591 9.45101 99.8556 9.1482 99.8556 8.76662C99.8556 8.38257 99.591 8.0773 99.23 8.0773ZM99.23 7.95175C99.6631 7.95175 100 8.31118 100 8.76169C100 9.2196 99.6631 9.57656 99.23 9.57656C99.1256 9.57656 99.0221 9.55547 98.9256 9.51449C98.8291 9.47351 98.7415 9.41344 98.6677 9.33774C98.594 9.26204 98.5355 9.17219 98.4957 9.07334C98.456 8.97449 98.4357 8.86859 98.436 8.76169C98.436 8.31118 98.7969 7.95175 99.23 7.95175ZM27.8633 5.25357H29.1867V9.0965H32.7719V10.3619H29.1867V14.5298H27.8633V10.3619H24.2782V9.0965H27.8633V5.25357V5.25357ZM83.3975 13.2299C83.6622 13.2299 84.0712 13.1955 84.5284 13.0822L84.5765 9.58395C84.1434 9.28114 83.7344 9.14082 83.2772 9.14082C82.1463 9.14082 81.4244 9.91137 81.4244 11.194C81.4244 12.4963 82.1463 13.2324 83.3975 13.2299ZM83.5419 14.4855C81.3041 14.4855 80.0289 13.2644 80.0289 11.1792C80.0289 9.16543 81.232 7.88282 83.0125 7.88282C83.6141 7.88282 84.1193 8.01822 84.5765 8.31364V7.85327H85.8999L85.8758 14.0571C85.2984 14.3058 84.384 14.483 83.5419 14.4855V14.4855ZM41.1935 13.2299C41.4822 13.2299 41.8672 13.1955 42.3484 13.0822V9.58395C41.9153 9.28114 41.5063 9.14082 41.0491 9.14082C39.9423 9.14082 39.2204 9.91137 39.2204 11.194C39.2204 12.4963 39.9423 13.2496 41.1935 13.2299ZM41.3138 14.4855C39.1001 14.4855 37.8248 13.2644 37.8248 11.1792C37.8248 9.16543 39.0279 7.88282 40.8085 7.88282C41.41 7.88282 41.9153 8.01822 42.3484 8.31364V7.85327H43.6959L43.6477 14.0571C43.0703 14.3058 42.18 14.483 41.3138 14.4855V14.4855ZM94.2733 13.4589C95.0914 13.4589 95.6689 13.0231 95.6689 12.0409V8.03545H97.0164V12.2107C97.0164 13.6066 95.9576 14.4609 94.2733 14.4609C92.589 14.4609 91.5303 13.6066 91.5303 12.2107V8.03545H92.8537V12.0409C92.8537 13.0231 93.4312 13.4589 94.2733 13.4589V13.4589ZM71.6795 14.5101C69.6583 14.3058 68.6477 12.841 68.7199 11.1029C68.768 9.22944 69.9711 7.89759 71.7757 7.89759C73.6766 7.89759 74.7594 9.33284 74.6631 11.4525H70.1155C70.2117 12.6292 70.9095 13.1832 71.8479 13.2595C72.6179 13.321 73.7488 13.1364 74.3263 12.7523V14.0423C73.5563 14.4362 72.7141 14.611 71.6795 14.5101ZM70.1877 10.4554H73.2194C73.1954 9.62826 72.7623 9.20236 71.9923 9.15066C71.1983 9.0965 70.4524 9.60857 70.1877 10.4554ZM61.5496 3.51551H62.873V15.6573H61.5496V3.51551ZM52.6227 13.2299C53.8739 13.2299 54.5958 12.4963 54.5958 11.194C54.5958 9.91137 53.8739 9.14082 52.7671 9.14082C52.2859 9.14082 51.8046 9.31315 51.4678 9.4707V12.9985C51.8527 13.1536 52.2377 13.2299 52.6227 13.2299ZM51.4678 8.21024C52.0934 7.95667 52.6708 7.88282 53.0077 7.88282C54.7883 7.88282 55.9913 9.16543 55.9913 11.1792C55.9913 13.2644 54.7161 14.4855 52.5024 14.4855C51.7324 14.4855 50.9625 14.3353 50.1684 14.0571L50.1203 4.82275H51.4678V8.21024V8.21024ZM93.5034 19.9902H94.7305V19.6381H93.9605V19.1925H94.6824V18.8479H93.9605V18.4638H94.7065V18.1216H93.5034V19.9902V19.9902ZM84.9856 18.8725H84.769V18.4392H84.9856C85.154 18.4392 85.2502 18.518 85.2502 18.6558C85.2502 18.8035 85.1781 18.8725 84.9856 18.8725V18.8725ZM84.3118 19.9754H84.769V19.2147H84.8412C85.0096 19.2147 85.0818 19.2738 85.154 19.4412L85.3946 19.9803H85.8999L85.6112 19.3402C85.563 19.2171 85.4909 19.1384 85.3946 19.1039C85.6112 19.0005 85.7315 18.8577 85.7315 18.6534C85.7315 18.2792 85.4909 18.1118 84.9856 18.1118H84.3118V19.9803V19.9754ZM75.6737 19.3008L75.9384 18.5869L76.2031 19.3008H75.6737V19.3008ZM74.9038 19.9828H75.385L75.5294 19.6209H76.3234L76.4437 19.9828H76.9249L76.2271 18.1142H75.6978L74.9038 19.9828V19.9828ZM66.0491 19.9828H66.2416L66.6506 18.8134L67.0597 19.9828H67.2522L67.974 18.0995H67.5168L67.1559 19.1187L66.8191 18.0995H66.4822L66.1453 19.1137L65.7844 18.0995H65.3032L66.0491 19.9828V19.9828ZM56.8335 19.9828H57.3147V18.4638H57.9163V18.1142H56.232V18.4638H56.8335V19.9828ZM47.1126 19.9828H47.5698V19.2147H48.2435V18.8626H47.5698V18.4564H48.2916V18.1142H47.1126V19.9828ZM37.488 19.03C37.488 18.6928 37.7286 18.4564 38.0173 18.4564C38.3301 18.4564 38.5467 18.6928 38.5467 19.03C38.5467 19.3698 38.3301 19.6012 38.0173 19.6012C37.7286 19.6012 37.488 19.3698 37.488 19.03ZM37.0067 19.03C37.0067 19.3058 37.103 19.5495 37.2955 19.7292C37.488 19.9064 37.7286 19.9951 38.0173 19.9951C38.3061 19.9951 38.5467 19.9064 38.7151 19.7292C38.9076 19.5495 39.0039 19.3107 39.0039 19.03C39.0039 18.7518 38.9076 18.5155 38.7151 18.3309C38.5467 18.1512 38.3061 18.065 38.0173 18.065C37.7286 18.065 37.488 18.1512 37.2955 18.3309C37.103 18.5155 37.0067 18.7518 37.0067 19.03ZM28.0558 19.8178C28.2483 19.9409 28.4889 20 28.7055 20C29.1627 20 29.4033 19.7834 29.4033 19.4412C29.4033 19.2344 29.3552 19.0768 29.1867 18.9759C29.0664 18.8897 28.898 18.838 28.7295 18.774C28.5371 18.7125 28.4889 18.6435 28.4889 18.5672C28.4889 18.4737 28.5852 18.417 28.7295 18.417C28.922 18.417 29.1145 18.4835 29.3551 18.6041V18.2201C29.1145 18.1142 28.922 18.065 28.7295 18.065C28.2964 18.065 28.0318 18.2915 28.0318 18.6041C28.0318 18.9463 28.2483 19.099 28.7055 19.2664C28.8739 19.323 28.9702 19.3599 28.9702 19.4707C28.9702 19.579 28.8739 19.6381 28.6814 19.6381C28.4889 19.6381 28.2964 19.547 28.0558 19.4018V19.8178V19.8178ZM3.78489 9.44855H2.17998V7.67356H1.60491V9.44855H0V10.0197H1.60491V11.807H2.17998V10.0172H3.78489V9.46824V9.44855ZM9.42974 0V1.81192H7.82724V2.35844H9.42974V4.1679H10.0072V2.35844H11.5784V1.81192H10.0072V0H9.42974ZM17.512 14.0103H15.1396V11.3639H14.2421V14.0103H11.8359V14.8178H14.2421V17.4668H15.1396V14.8178H17.512V14.0103V14.0103ZM19.3407 9.38208H17.7358V7.53816H16.9682V9.38208H15.3321V10.096H16.9682V11.9424H17.7358V10.096H19.3407V9.38208V9.38208ZM7.5385 4.55933H5.13234V1.903H4.26612V4.55933H1.85996V5.3422H4.26612V8.00098H5.13234V5.3422H7.5385V4.55933ZM11.706 16.9645H10.1035V15.1182H9.33349V16.9645H7.69731V17.676H9.33349V19.5224H10.1035V17.676H11.706V16.9645V16.9645ZM17.512 4.55933H15.1396V1.903H14.2421V4.55933H11.8359V5.36681H14.2421V8.00098H15.1396V5.36681H17.512V4.55933ZM7.5385 14.0103H5.13234V11.3639H4.23484V14.0103H1.85996V14.8178H4.23484V17.4668H5.13234V14.8178H7.5385V14.0103ZM12.8609 9.18513H10.1997V6.23092H9.141V9.18513H6.51107V10.2363H9.141V13.193H10.1997V10.2363H12.8609V9.18513V9.18513Z" fill="#8B96AA"/>
</svg>
