<svg width="51" height="29" viewBox="0 0 51 29" fill="none" xmlns="http://www.w3.org/2000/svg">
<path fill-rule="evenodd" clip-rule="evenodd" d="M7.60595 6.8579C7.16512 6.01871 6.46696 5.54469 5.36461 5.54469C3.52717 5.54469 2.49839 7.11309 2.49839 9.37491C2.49839 11.5637 3.56381 13.2051 5.40125 13.2051C6.46667 13.2051 7.12819 12.7308 7.75279 11.6728L9.81064 12.8766C9.00227 14.5914 7.53238 15.6127 5.32768 15.6127C2.13084 15.6127 0 13.2048 0 9.37462C0 5.69019 2.2047 3.13681 5.40125 3.13681C7.71615 3.13681 9.07555 4.2312 9.84728 5.7996L7.60595 6.8579V6.8579ZM9.51667 28.8176C9.62687 25.1334 10.7661 23.6011 13.0441 21.9963C13.9261 21.3396 14.22 20.8658 14.22 20.1727C14.22 19.3335 13.7792 18.8956 12.9708 18.8956C12.2358 18.8956 11.6481 19.2602 11.0232 20.0266L9.55359 18.4943C10.3986 17.4002 11.4643 16.7071 13.0441 16.7071C15.1753 16.7071 16.5349 17.8745 16.5349 19.8806C16.5349 21.4856 15.8001 22.507 14.5509 23.4189C12.8606 24.6597 12.1625 25.4619 12.0523 26.6657H16.5719V28.8178H9.51667V28.8176ZM21.3479 29C18.5556 29 17.4532 26.4833 17.4532 22.8719C17.4532 19.2605 18.5922 16.7074 21.3849 16.7074C24.104 16.7074 25.243 19.2241 25.243 22.8355C25.243 26.4469 24.067 29 21.3479 29ZM21.3479 18.8592C20.2456 18.8592 19.8048 20.0994 19.8048 22.8355C19.8048 25.608 20.2822 26.8482 21.3849 26.8482C22.4137 26.8482 22.8914 25.608 22.8914 22.8719C22.8914 20.1358 22.4137 18.8592 21.3479 18.8592ZM30.2769 29C27.5209 29 26.3822 26.4833 26.3822 22.8719C26.3822 19.2605 27.5576 16.7074 30.3136 16.7074C33.0324 16.7074 34.2083 19.2241 34.2083 22.8355C34.2083 26.4469 32.9955 29 30.2769 29ZM30.2769 18.8592C29.2115 18.8592 28.7335 20.0994 28.7335 22.8355C28.7335 25.608 29.2112 26.8482 30.3136 26.8482C31.379 26.8482 31.8204 25.608 31.8204 22.8719C31.8204 20.1358 31.3424 18.8592 30.2769 18.8592V18.8592ZM39.169 29C36.3764 29 35.2737 26.4833 35.2737 22.8719C35.2737 19.2605 36.413 16.7074 39.2056 16.7074C41.9244 16.7074 43.0637 19.2241 43.0637 22.8355C43.0637 26.4469 41.8878 29 39.169 29V29ZM39.169 18.8592C38.0664 18.8592 37.6256 20.0994 37.6256 22.8355C37.6256 25.608 38.1027 26.8482 39.2056 26.8482C40.2339 26.8482 40.7125 25.608 40.7125 22.8719C40.7125 20.1358 40.2339 18.8592 39.169 18.8592V18.8592ZM17.4899 11.8916H12.309C12.3826 13.1685 13.2645 13.7158 14.1462 13.7158C14.9546 13.7158 15.3587 13.4603 15.7629 13.0591L17.1959 14.2265C16.4977 15.1023 15.3957 15.5761 14.1462 15.5761C11.6844 15.5761 10.1413 13.8616 10.1413 11.1988C10.1413 8.60875 11.7946 6.78486 13.9258 6.78486C16.2037 6.78486 17.5268 8.79119 17.5268 11.1988C17.5268 11.527 17.4899 11.7458 17.4899 11.8916V11.8916ZM13.8156 8.53571C12.9336 8.53571 12.3826 9.22883 12.309 10.3232H15.4689C15.3957 9.33824 14.9179 8.53571 13.8156 8.53571ZM23.7731 15.3936V10.8339C23.7731 9.33825 23.2587 8.90061 22.3401 8.90061C21.4215 8.90061 20.8705 9.33853 20.8705 10.7975V15.3936H18.6289V6.96731H20.8705V7.55102C21.2747 7.14975 21.9728 6.78486 22.8545 6.78486C25.0222 6.78486 26.0141 8.28052 26.0141 10.6515V15.3936H23.7731ZM30.7175 15.5761C29.3584 15.5761 28.0353 15.2115 27.1534 14.5914L27.8882 12.9133C28.8068 13.4239 29.7623 13.7888 30.8277 13.7888C31.7096 13.7888 32.0402 13.5334 32.0402 13.0957C32.0402 12.6944 31.8198 12.4756 30.7172 12.1838C28.6966 11.5637 27.3735 11.0894 27.3735 9.30187C27.3735 7.55102 28.7698 6.78486 30.7544 6.78486C31.8198 6.78486 32.9955 7.11309 33.9143 7.62377L33.1789 9.37491C32.3342 8.93727 31.4154 8.60875 30.7172 8.60875C29.762 8.60875 29.5046 8.82757 29.5046 9.19246C29.5046 9.55707 29.6884 9.73951 31.3054 10.2502C32.8117 10.7245 34.1714 11.2715 34.1714 12.9496C34.1717 14.8829 32.6282 15.5761 30.7175 15.5761V15.5761ZM40.5281 15.3936V14.8466C40.1609 15.2475 39.4261 15.5761 38.5441 15.5761C36.3764 15.5761 35.4209 14.1171 35.4209 11.7458V6.96731H37.6625V11.527C37.6625 13.0591 38.1769 13.497 39.0954 13.497C40.014 13.497 40.5284 13.0591 40.5284 11.5998V6.96731H42.77V15.3936H40.5281V15.3936ZM47.5461 15.5761C46.2236 15.5761 44.9006 15.2115 43.982 14.5914L44.7168 12.9133C45.6354 13.4239 46.5909 13.7888 47.693 13.7888C48.5749 13.7888 48.9055 13.5334 48.9055 13.0957C48.9055 12.6944 48.6485 12.4756 47.583 12.1838C45.5618 11.5637 44.2021 11.0894 44.2021 9.30187C44.2021 7.55102 45.6351 6.78486 47.6197 6.78486C48.6851 6.78486 49.8607 7.11309 50.7424 7.62377L50.0442 9.37491C49.1995 8.93727 48.2812 8.60875 47.583 8.60875C46.5909 8.60875 46.3333 8.82757 46.3333 9.19246C46.3333 9.55707 46.517 9.73951 48.1707 10.2502C49.6403 10.7245 51 11.2715 51 12.9496C51.0003 14.8829 49.4568 15.5761 47.5461 15.5761V15.5761ZM13.9993 0.911943V3.20984C13.9993 4.52305 13.3747 5.21617 12.2355 5.21617C11.0965 5.21617 10.5085 4.48668 10.5085 3.20984V0.911943H9.99413V0.328231H11.7577V0.911943H11.2433V3.28288C11.2433 4.12179 11.5739 4.55971 12.2352 4.55971C12.9333 4.55971 13.3009 4.12207 13.3009 3.31954V0.911943H12.7496V0.328231H14.5132V0.911943H13.9993V0.911943ZM16.8286 5.14314V4.55943H17.2328V2.91799C17.2328 2.22515 17.0124 2.00604 16.6449 2.00604C16.3142 2.00604 16.0569 2.18849 15.8731 2.48035V4.55943H16.2773V5.14314H14.7341V4.55943H15.1383V2.07879H14.7341V1.53174H15.8731V1.89635C16.0938 1.60449 16.3875 1.42205 16.8286 1.42205C17.5634 1.42205 17.9676 1.85969 17.9676 2.84466V4.55914H18.3718V5.14285H16.8286V5.14314V5.14314ZM19.5108 0.911943C19.2537 0.911943 19.07 0.692836 19.07 0.437641C19.07 0.21882 19.2537 0 19.5108 0C19.7681 0 19.9885 0.219107 19.9885 0.437641C19.9883 0.692836 19.7678 0.911943 19.5108 0.911943ZM18.776 5.14314V4.55943H19.2537V2.07879H18.776V1.53174H19.9519V4.55943H20.3927V5.14314H18.776V5.14314ZM22.6341 5.03401C22.4869 5.14342 22.2299 5.21646 21.9728 5.21646C21.4951 5.21646 21.1645 4.88823 21.1645 4.23177V2.07937H20.687V1.53232H21.1645V0.474302L21.8993 0.109696V1.53232H22.7076V2.07937H21.8993V4.15873C21.8993 4.52334 21.9728 4.59637 22.2299 4.59637C22.4137 4.59637 22.5971 4.52334 22.7076 4.45059L22.6341 5.03401V5.03401ZM26.0141 3.57474H23.7731C23.8097 4.23148 24.1037 4.59609 24.655 4.59609C25.0592 4.59609 25.3162 4.48668 25.6468 4.23148L25.9408 4.74216C25.5366 5.03401 25.1327 5.21617 24.6181 5.21617C23.7364 5.21617 23.0749 4.52305 23.0749 3.31925C23.0749 2.11517 23.6628 1.42233 24.5814 1.42233C25.5736 1.42233 26.0141 2.26124 26.0141 3.24622V3.57474V3.57474ZM24.5445 2.00604C24.0667 2.00604 23.8097 2.37094 23.7731 2.99102H25.3162C25.2796 2.48063 25.0958 2.00604 24.5445 2.00604ZM28.7701 5.14314V4.74216C28.5497 5.03401 28.2557 5.21617 27.8882 5.21617C27.1167 5.21617 26.5657 4.63246 26.5657 3.2465C26.5657 2.00605 27.1534 1.42262 27.8515 1.42262C28.2921 1.42262 28.5497 1.64173 28.7701 1.86026V0.583712H28.3662V0.0366616H29.5049V4.55971H29.8722V5.14342H28.7701V5.14314V5.14314ZM28.8068 2.48063C28.623 2.29819 28.3296 2.00633 27.9987 2.00633C27.5209 2.00633 27.2639 2.44426 27.2639 3.24679C27.2639 4.23177 27.5576 4.63303 28.0353 4.63303C28.3296 4.63303 28.5131 4.48725 28.8068 4.15873V2.48063V2.48063ZM33.8408 5.21617C33.363 5.21617 32.9955 4.99735 32.7753 4.74216V5.14314H32.1504V3.64748H32.7387C32.9225 4.2312 33.2164 4.59609 33.8041 4.59609C34.3551 4.59609 34.6128 4.34061 34.6128 3.86659C34.6128 3.42866 34.5023 3.21013 33.6206 2.99102C32.6651 2.69917 32.1877 2.40731 32.1877 1.53203C32.1877 0.729497 32.7387 0.21882 33.584 0.21882C34.135 0.21882 34.4293 0.437641 34.5761 0.692836V0.328231H35.2004V1.78751H34.6128C34.5389 1.2038 34.2083 0.838907 33.6206 0.838907C33.1062 0.838907 32.9225 1.13076 32.9225 1.49537C32.9225 1.89663 33.1795 2.11546 33.8777 2.2979C34.8698 2.58976 35.3479 2.91799 35.3479 3.79327C35.3476 4.74216 34.7227 5.21617 33.8408 5.21617ZM37.6988 5.03401C37.5517 5.14342 37.2949 5.21646 37.0373 5.21646C36.5601 5.21646 36.2659 4.88823 36.2659 4.23177V2.07937H35.7515V1.53232H36.2659V0.474302L36.964 0.109696V1.53232H37.7727V2.07937H36.964V4.15873C36.964 4.52334 37.0745 4.59637 37.2946 4.59637C37.4784 4.59637 37.6619 4.52334 37.7724 4.45059L37.6988 5.03401V5.03401ZM40.3077 5.14314V4.74216C40.0873 4.99735 39.7567 5.21617 39.3156 5.21617C38.6913 5.21617 38.1402 4.88794 38.1402 4.01238C38.1402 3.20984 38.7279 2.80858 39.4993 2.80858C39.83 2.80858 40.0876 2.88133 40.308 2.99102V2.66279C40.308 2.26153 40.0509 2.04271 39.6465 2.04271C39.2792 2.04271 39.0222 2.11545 38.7279 2.26153L38.4708 1.75085C38.8012 1.53203 39.2057 1.42262 39.6828 1.42262C40.4548 1.42262 41.0059 1.82389 41.0059 2.66279V4.55971H41.3731V5.14342H40.3077V5.14314V5.14314ZM40.3077 3.53836C40.1239 3.46532 39.9038 3.39229 39.499 3.39229C39.0952 3.39229 38.8381 3.61111 38.8381 3.976C38.8381 4.41364 39.0219 4.59609 39.4624 4.59609C39.793 4.59609 40.0873 4.41364 40.3077 4.15845V3.53836ZM43.5043 5.03401C43.3571 5.14342 43.1004 5.21646 42.8427 5.21646C42.3656 5.21646 42.0713 4.88823 42.0713 4.23177V2.07937H41.5569V1.53232H42.0713V0.474302L42.7695 0.109696V1.53232H43.5781V2.07937H42.7695V4.15873C42.7695 4.52334 42.8427 4.59637 43.1001 4.59637C43.2839 4.59637 43.4673 4.52334 43.5778 4.45059L43.5043 5.03401V5.03401ZM46.8852 3.57474H44.6435C44.7168 4.23148 44.9742 4.59609 45.5621 4.59609C45.966 4.59609 46.1864 4.48668 46.5173 4.23148L46.8116 4.74216C46.4443 5.03401 46.0402 5.21617 45.4885 5.21617C44.6072 5.21617 43.9457 4.52305 43.9457 3.31925C43.9457 2.11517 44.57 1.42233 45.4519 1.42233C46.444 1.42233 46.9221 2.26124 46.9221 3.24622C46.9218 3.39229 46.8852 3.5017 46.8852 3.57474V3.57474ZM45.415 2.00604C44.9372 2.00604 44.7168 2.37094 44.6435 2.99102H46.1864C46.1498 2.48063 45.966 2.00604 45.415 2.00604ZM48.9058 5.1798C48.4647 5.1798 48.2815 5.0701 48.0971 4.85157V5.14342H47.5095V4.01266H48.0239C48.2443 4.41393 48.4644 4.63303 48.8692 4.63303C49.1634 4.63303 49.3463 4.45059 49.3463 4.19511C49.3463 3.93991 49.1998 3.79384 48.6854 3.64806C47.8035 3.39257 47.5095 3.10101 47.5095 2.48092C47.5095 1.93358 47.9134 1.45957 48.6115 1.45957C48.9422 1.45957 49.1998 1.5326 49.3836 1.75142V1.5326H49.9346V2.62699H49.4568C49.2731 2.22572 49.0529 2.00662 48.6854 2.00662C48.3548 2.00662 48.2076 2.15269 48.2076 2.40788C48.2076 2.6267 48.3181 2.77249 48.8692 2.95522C49.7145 3.21042 50.0445 3.4659 50.0445 4.15902C50.0445 4.7055 49.604 5.1798 48.9058 5.1798V5.1798Z" fill="#8B96AA"/>
</svg>
