<svg width="58" height="58" viewBox="0 0 58 58" fill="none" xmlns="http://www.w3.org/2000/svg">
<path d="M29 8.90399C23.4533 8.90399 18.4187 11.1653 14.792 14.792C11.1653 18.4187 8.90399 23.4533 8.90399 29C8.90399 40.0933 17.9067 49.096 29 49.096C40.0933 49.096 49.096 40.0933 49.096 29C49.096 17.9067 40.0933 8.90399 29 8.90399ZM45 19.912C46.408 22.344 47.2613 25.16 47.3893 28.1467H37.1067C37.064 26.2693 36.936 24.4773 36.7227 22.7707C37.9173 22.3013 38.8133 21.2773 39.0693 20.04H44.488C44.7013 20.04 44.8293 19.9973 45 19.912ZM23.5387 38.472C23.1547 36.68 22.856 34.76 22.728 32.712C24.0933 32.328 25.16 31.2187 25.5013 29.8533H35.4C35.3573 31.7307 35.2293 33.5227 35.016 35.272C33.2667 35.4 31.816 36.7653 31.56 38.472H23.5387ZM19.5707 29C19.5707 28.7013 19.6133 28.4027 19.7413 28.1467C19.9547 27.6347 20.3813 27.2507 20.8933 27.0373C21.1493 26.952 21.4053 26.8667 21.704 26.8667C22.0027 26.8667 22.3013 26.952 22.6 27.08C23.0693 27.2933 23.4533 27.6773 23.6667 28.1893C23.7947 28.4453 23.8373 28.744 23.8373 29.0427C23.8373 29.3413 23.752 29.64 23.6667 29.896C23.4533 30.3653 23.0693 30.7493 22.6 31.0053C22.344 31.0907 22.0453 31.1333 21.7467 31.1333C21.448 31.1333 21.192 31.0907 20.936 30.9627C20.424 30.7493 19.9973 30.3653 19.784 29.8533C19.656 29.5973 19.5707 29.2987 19.5707 29ZM37.4907 39.112C37.4907 39.496 37.4053 39.88 37.192 40.1787C36.8507 40.776 36.2107 41.2027 35.4853 41.2453C35.4427 41.2453 35.4 41.2453 35.3573 41.2453C34.8027 41.2453 34.2907 41.032 33.9067 40.6907C33.736 40.5627 33.608 40.392 33.5227 40.2213C33.352 39.88 33.224 39.5387 33.224 39.1547C33.224 38.9413 33.2667 38.728 33.3093 38.5147C33.5227 37.832 34.0773 37.2773 34.76 37.064C34.9733 37.0213 35.144 36.9787 35.3573 36.9787C35.7413 36.9787 36.1253 37.064 36.424 37.2773C36.8933 37.5333 37.2347 38.0027 37.4053 38.5147C37.448 38.6853 37.4907 38.8987 37.4907 39.112ZM25.5013 28.1467C25.2027 26.7387 24.136 25.6293 22.728 25.288C22.856 23.4533 23.112 21.704 23.4533 20.0827H31.6027C31.9867 21.704 33.352 22.9413 35.0587 23.0693C35.272 24.6907 35.4 26.3973 35.4 28.1893H25.5013V28.1467ZM33.224 19.1867C33.224 18.888 33.2667 18.5893 33.3947 18.3333C33.5227 18.0347 33.736 17.7787 33.992 17.5653C34.376 17.224 34.8453 17.0533 35.3573 17.0533C35.4427 17.0533 35.528 17.0533 35.5707 17.0533C36.3387 17.1387 37.0213 17.6507 37.32 18.3333C37.448 18.5893 37.4907 18.888 37.4907 19.1867C37.4907 19.4853 37.448 19.784 37.32 20.04C37.1493 20.424 36.8507 20.7653 36.4667 21.0213C36.1253 21.2347 35.7413 21.3627 35.3573 21.3627C35.144 21.3627 34.9733 21.32 34.8027 21.2773C34.1627 21.1067 33.6507 20.68 33.3947 20.0827C33.2667 19.784 33.224 19.4853 33.224 19.1867ZM43.976 18.3333H39.112C38.728 16.6267 37.192 15.3467 35.3573 15.3467C35.2293 15.3467 35.144 15.3467 35.016 15.3467C34.3333 13.5547 33.5653 12.0613 32.6267 10.952C37.32 11.8907 41.3307 14.6213 43.976 18.3333ZM29 10.6107C30.536 10.6107 32.1147 12.488 33.352 15.688C33.3947 15.7733 33.3947 15.816 33.4373 15.8587C32.5413 16.3707 31.8587 17.2667 31.6027 18.3333H23.8373C24.0933 17.3947 24.3493 16.4987 24.6907 15.688C25.8853 12.4453 27.464 10.6107 29 10.6107ZM25.3733 10.952C24.008 12.616 22.8987 15.176 22.088 18.3333H14.024C16.6693 14.6213 20.7227 11.8907 25.3733 10.952ZM13 19.912C13.128 19.9973 13.2987 20.04 13.4693 20.04H21.6613C21.3627 21.6613 21.1067 23.368 20.9787 25.2027C19.4853 25.5013 18.2907 26.6533 17.9493 28.1467H10.6107C10.7813 25.16 11.6347 22.344 13 19.912ZM13.256 38.5147C11.72 35.9547 10.7813 33.0107 10.6107 29.8533H17.9493C18.2907 31.3467 19.4853 32.4987 20.9787 32.7973C21.1067 34.8453 21.4053 36.7227 21.7467 38.472H13.4693C13.4267 38.472 13.3413 38.472 13.256 38.5147ZM14.408 40.1787H22.216C22.984 43.08 24.0933 45.4693 25.3733 47.048C20.936 46.152 17.0533 43.6347 14.408 40.1787ZM29 47.3893C27.464 47.3893 25.8427 45.512 24.648 42.312C24.392 41.6293 24.1787 40.9467 23.9653 40.1787H31.6453C31.9013 41.0747 32.4987 41.8853 33.3093 42.3547C32.1147 45.5547 30.536 47.3893 29 47.3893ZM32.6693 47.048C33.5227 46.024 34.2907 44.616 34.9307 42.952C35.0587 42.952 35.2293 42.9947 35.3573 42.9947C37.1067 42.9947 38.5573 41.8427 39.0267 40.2213H43.592C40.9467 43.6347 37.064 46.152 32.6693 47.048ZM44.744 38.5147C44.6587 38.5147 44.616 38.472 44.5307 38.472H39.1547C38.9413 37.1067 37.96 35.9547 36.7227 35.4853C36.9787 33.6933 37.1067 31.816 37.1493 29.8533H47.3893C47.2187 33.0107 46.28 35.9547 44.744 38.5147Z" fill="#027AFD"/>
</svg>
