<svg width="58" height="58" viewBox="0 0 58 58" fill="none" xmlns="http://www.w3.org/2000/svg">
<path d="M24.5627 47.304H3.95467C3.35733 47.304 2.888 46.8347 2.888 46.2374V11.1227C2.888 10.5254 3.35733 10.056 3.95467 10.056H24.5627C25.16 10.056 25.6293 10.5254 25.6293 11.1227C25.6293 11.72 25.16 12.1894 24.5627 12.1894H5.02133V45.1707H24.5627C25.16 45.1707 25.6293 45.64 25.6293 46.2374C25.6293 46.8347 25.16 47.304 24.5627 47.304Z" fill="#027AFD"/>
<path d="M29.0427 51.3147C28.4453 51.3147 27.976 50.8454 27.976 50.2481V7.11208C27.976 6.51474 28.4453 6.04541 29.0427 6.04541C29.64 6.04541 30.1093 6.51474 30.1093 7.11208V50.2907C30.1093 50.8454 29.64 51.3147 29.0427 51.3147Z" fill="#027AFD"/>
<path d="M48.9253 16.4561C47.6027 15.1335 45.4267 15.1335 44.104 16.4561C43.4213 17.1388 43.1227 17.9921 43.1227 18.8881C43.1227 19.6988 43.3787 20.5095 43.976 21.1068L37.2347 31.6028C36.9787 31.5175 36.68 31.5175 36.3813 31.5175C35.4853 31.5175 34.6747 31.8588 34.0347 32.4561L22.344 26.2268C22.3867 26.0561 22.3867 25.9281 22.3867 25.7575C22.3867 24.8615 22.0453 24.0081 21.3627 23.3255C20.7227 22.6855 19.8693 22.3441 18.9307 22.3441C17.992 22.3441 17.1813 22.6855 16.4987 23.3255C15.816 23.9655 15.4747 24.8188 15.4747 25.7575C15.4747 26.4828 15.688 27.1655 16.1147 27.7628L7.88 39.9228C7.53867 40.4348 7.66667 41.0748 8.17867 41.4161C8.34934 41.5441 8.56267 41.5868 8.776 41.5868C9.11734 41.5868 9.45867 41.4161 9.672 41.1175L17.9067 29.0001C18.248 29.0855 18.5893 29.1708 18.9307 29.1708C19.8267 29.1708 20.7227 28.8295 21.3627 28.1895L21.4053 28.1468L33.0533 34.3335C33.0107 34.5468 33.0107 34.7175 33.0107 34.9308C33.0107 35.8268 33.352 36.6801 33.992 37.3628C34.632 38.0455 35.4853 38.3868 36.424 38.3868C37.32 38.3868 38.216 38.0455 38.856 37.3628C39.496 36.6801 39.88 35.8695 39.88 34.9308C39.88 34.1201 39.624 33.3948 39.112 32.7548L45.8533 22.2161C46.1093 22.2588 46.3653 22.3015 46.5787 22.3015C47.4747 22.3015 48.328 21.9601 49.0107 21.3201C50.248 19.9548 50.248 17.7788 48.9253 16.4561ZM19.8693 26.6535C19.6133 26.9095 19.272 27.0375 18.9733 27.0375C18.6747 27.0375 18.2907 26.9095 18.0773 26.6535C17.8213 26.3975 17.6933 26.0988 17.6933 25.7575C17.6933 25.6721 17.6933 25.6295 17.6933 25.5441C17.736 25.2881 17.864 25.0321 18.0347 24.8188C18.2907 24.5628 18.5893 24.4348 18.9307 24.4348C19.272 24.4348 19.6133 24.5628 19.8267 24.8188C19.8693 24.8615 19.8693 24.9041 19.912 24.9041C20.0827 25.1175 20.2107 25.4161 20.2107 25.7148C20.2533 26.0988 20.0827 26.3975 19.8693 26.6535ZM37.6613 34.9308C37.6613 35.2721 37.5333 35.6135 37.2773 35.8268C37.0213 36.0828 36.68 36.2108 36.3813 36.2108C36.04 36.2108 35.6987 36.0828 35.4853 35.8268C35.4 35.7415 35.3147 35.6135 35.272 35.5281C35.1867 35.3575 35.144 35.1441 35.144 34.9308C35.144 34.5895 35.272 34.2481 35.528 34.0348C35.784 33.8215 36.0827 33.6508 36.424 33.6508C36.7653 33.6508 37.1067 33.7788 37.32 34.0348C37.5333 34.2481 37.6613 34.5468 37.6613 34.9308ZM47.432 19.7841C47.3467 19.8695 47.304 19.9121 47.2187 19.9548C46.7067 20.2961 46.0667 20.2108 45.5973 19.7841C45.384 19.5708 45.256 19.3148 45.256 19.0588C45.2133 18.6748 45.2987 18.2481 45.5973 17.9495C46.1093 17.4375 46.92 17.4375 47.3893 17.9495C47.9013 18.4615 47.9013 19.2721 47.432 19.7841Z" fill="#027AFD"/>
<path d="M33.48 47.2614C33.3947 47.2614 33.352 47.2614 33.2667 47.2614C33.1813 47.2614 33.1387 47.2187 33.0533 47.2187C33.0107 47.1761 32.9253 47.1761 32.8827 47.1334C32.84 47.0907 32.7547 47.0481 32.712 47.0054C32.6693 46.9627 32.6267 46.9201 32.584 46.8347C32.5413 46.7921 32.4987 46.7067 32.4987 46.6641C32.4987 46.6214 32.456 46.5361 32.456 46.4507C32.456 46.3654 32.4133 46.3227 32.4133 46.2374C32.4133 46.1521 32.4133 46.1094 32.456 46.0241C32.456 45.9387 32.4987 45.8961 32.4987 45.8107C32.5413 45.7681 32.5413 45.6827 32.584 45.6401C32.6267 45.5974 32.6693 45.5121 32.712 45.4694C32.7547 45.4267 32.7973 45.3841 32.8827 45.3414C32.968 45.2987 33.0107 45.2561 33.0533 45.2561C33.1387 45.2134 33.1813 45.2134 33.2667 45.2134C33.608 45.1281 33.992 45.2561 34.2053 45.5121C34.248 45.5547 34.2907 45.5974 34.3333 45.6827C34.376 45.7254 34.4187 45.8107 34.4187 45.8534C34.4613 45.9387 34.4613 45.9814 34.4613 46.0667C34.4613 46.1521 34.4613 46.1947 34.4613 46.2801C34.4613 46.3654 34.4613 46.4081 34.4613 46.4934C34.4613 46.5787 34.4187 46.6214 34.4187 46.7067C34.376 46.7494 34.376 46.8347 34.3333 46.8774C34.2907 46.9201 34.248 47.0054 34.2053 47.0481C34.0347 47.1761 33.7787 47.2614 33.48 47.2614Z" fill="#027AFD"/>
<path d="M47.8587 46.1947C47.8587 45.5974 48.328 45.1281 48.9253 45.1281C49.5227 45.1281 49.992 45.5974 49.992 46.1947C49.992 46.7921 49.5227 47.2614 48.9253 47.2614C48.3707 47.2614 47.8587 46.7921 47.8587 46.1947ZM42.7387 46.1947C42.7387 45.5974 43.208 45.1281 43.8053 45.1281C44.4027 45.1281 44.872 45.5974 44.872 46.1947C44.872 46.7921 44.4027 47.2614 43.8053 47.2614C43.208 47.2614 42.7387 46.7921 42.7387 46.1947ZM37.576 46.1947C37.576 45.5974 38.0453 45.1281 38.6427 45.1281C39.24 45.1281 39.7093 45.5974 39.7093 46.1947C39.7093 46.7921 39.24 47.2614 38.6427 47.2614C38.0453 47.2614 37.576 46.7921 37.576 46.1947Z" fill="#027AFD"/>
<path d="M54.088 47.2614C53.7893 47.2614 53.5333 47.1334 53.32 46.9627C53.2773 46.92 53.2347 46.8774 53.192 46.792C53.1493 46.7494 53.1067 46.664 53.1067 46.6214C53.064 46.5787 53.064 46.4934 53.064 46.408C53.064 46.3227 53.064 46.28 53.064 46.1947C53.064 45.896 53.192 45.64 53.3627 45.4267C53.4053 45.384 53.448 45.3414 53.5333 45.2987C53.576 45.256 53.6613 45.2134 53.704 45.2134C53.7893 45.1707 53.832 45.1707 53.9173 45.1707C54.2587 45.0854 54.6427 45.2134 54.8987 45.4694C54.9413 45.512 54.984 45.5547 55.0267 45.64C55.0693 45.6827 55.112 45.768 55.112 45.8107C55.1547 45.896 55.1547 45.9387 55.1547 46.024C55.1547 46.1094 55.1547 46.152 55.1547 46.2374C55.1547 46.3227 55.1547 46.3654 55.1547 46.4507C55.1547 46.536 55.112 46.5787 55.112 46.664C55.0693 46.7067 55.0693 46.792 55.0267 46.8347C54.984 46.8774 54.9413 46.9627 54.8987 47.0054C54.856 47.048 54.8133 47.0907 54.728 47.1334C54.6853 47.176 54.6 47.2187 54.5573 47.2187C54.5147 47.2614 54.4293 47.2614 54.344 47.2614C54.216 47.2614 54.1733 47.2614 54.088 47.2614Z" fill="#027AFD"/>
<path d="M53.0213 40.3494C53.0213 39.7521 53.4907 39.2827 54.088 39.2827C54.6853 39.2827 55.1547 39.7521 55.1547 40.3494C55.1547 40.9467 54.6853 41.4161 54.088 41.4161C53.4907 41.4161 53.0213 40.9467 53.0213 40.3494ZM53.0213 34.5041C53.0213 33.9067 53.4907 33.4374 54.088 33.4374C54.6853 33.4374 55.1547 33.9067 55.1547 34.5041C55.1547 35.1014 54.6853 35.5707 54.088 35.5707C53.4907 35.5707 53.0213 35.1014 53.0213 34.5041ZM53.0213 28.6587C53.0213 28.0614 53.4907 27.5921 54.088 27.5921C54.6853 27.5921 55.1547 28.0614 55.1547 28.6587C55.1547 29.2561 54.6853 29.7254 54.088 29.7254C53.4907 29.7254 53.0213 29.2561 53.0213 28.6587ZM53.0213 22.8134C53.0213 22.2161 53.4907 21.7467 54.088 21.7467C54.6853 21.7467 55.1547 22.2161 55.1547 22.8134C55.1547 23.4107 54.6853 23.8801 54.088 23.8801C53.4907 23.8801 53.0213 23.4107 53.0213 22.8134ZM53.0213 16.9681C53.0213 16.3707 53.4907 15.9014 54.088 15.9014C54.6853 15.9014 55.1547 16.3707 55.1547 16.9681C55.1547 17.5654 54.6853 18.0347 54.088 18.0347C53.4907 18.0347 53.0213 17.5654 53.0213 16.9681Z" fill="#027AFD"/>
<path d="M54.088 12.1893C54.0027 12.1893 53.96 12.1893 53.8747 12.1893C53.7893 12.1893 53.7467 12.1467 53.6613 12.1467C53.6187 12.104 53.5333 12.104 53.4907 12.0613C53.448 12.0187 53.3627 11.976 53.32 11.9333C53.2773 11.8907 53.2347 11.848 53.192 11.7627C53.1493 11.72 53.1067 11.6347 53.1067 11.592C53.064 11.5067 53.064 11.464 53.064 11.3787C53.064 11.2933 53.064 11.2507 53.064 11.1653C53.064 11.08 53.064 11.0373 53.064 10.952C53.064 10.8667 53.1067 10.824 53.1067 10.7387C53.1493 10.696 53.1493 10.6107 53.192 10.568C53.2347 10.5253 53.2773 10.44 53.32 10.3973C53.3627 10.3547 53.4053 10.312 53.4907 10.2693C53.5333 10.2267 53.6187 10.184 53.6613 10.184C53.7467 10.1413 53.7893 10.1413 53.8747 10.1413C54.216 10.056 54.6 10.184 54.856 10.44C54.8987 10.4827 54.9413 10.5253 54.984 10.6107C55.0267 10.6533 55.0693 10.7387 55.0693 10.7813C55.112 10.8667 55.112 10.9093 55.112 10.9947C55.112 11.08 55.112 11.1227 55.112 11.208C55.112 11.2933 55.112 11.336 55.112 11.4213C55.112 11.5067 55.0693 11.5493 55.0693 11.6347C55.0267 11.6773 55.0267 11.7627 54.984 11.8053C54.9413 11.848 54.8987 11.9333 54.856 11.976C54.6427 12.0613 54.3867 12.1893 54.088 12.1893Z" fill="#027AFD"/>
<path d="M47.8587 11.1227C47.8587 10.5254 48.328 10.056 48.9253 10.056C49.5227 10.056 49.992 10.5254 49.992 11.1227C49.992 11.72 49.5227 12.1894 48.9253 12.1894C48.3707 12.1894 47.8587 11.72 47.8587 11.1227ZM42.7387 11.1227C42.7387 10.5254 43.208 10.056 43.8053 10.056C44.4027 10.056 44.872 10.5254 44.872 11.1227C44.872 11.72 44.4027 12.1894 43.8053 12.1894C43.208 12.1894 42.7387 11.72 42.7387 11.1227ZM37.576 11.1227C37.576 10.5254 38.0453 10.056 38.6427 10.056C39.24 10.056 39.7093 10.5254 39.7093 11.1227C39.7093 11.72 39.24 12.1894 38.6427 12.1894C38.0453 12.1894 37.576 11.72 37.576 11.1227Z" fill="#027AFD"/>
<path d="M33.48 12.1893C33.3947 12.1893 33.352 12.1893 33.2667 12.1893C33.1813 12.1893 33.1387 12.1467 33.0533 12.1467C33.0107 12.104 32.9253 12.104 32.8827 12.0613C32.84 12.0187 32.7547 11.976 32.712 11.9333C32.6693 11.8907 32.6267 11.848 32.584 11.7627C32.5413 11.72 32.4987 11.6347 32.4987 11.592C32.456 11.5067 32.456 11.464 32.456 11.3787C32.456 11.2933 32.4133 11.2507 32.4133 11.1653C32.4133 11.08 32.4133 11.0373 32.456 10.952C32.456 10.8667 32.4987 10.824 32.4987 10.7387C32.5413 10.696 32.5413 10.6107 32.584 10.568C32.6267 10.5253 32.6693 10.44 32.712 10.3973C32.7547 10.3547 32.7973 10.312 32.8827 10.2693C32.9253 10.2267 33.0107 10.184 33.0533 10.184C33.1387 10.1413 33.1813 10.1413 33.2667 10.1413C33.608 10.056 33.992 10.184 34.2053 10.44C34.248 10.4827 34.2907 10.5253 34.3333 10.6107C34.376 10.6533 34.4187 10.7387 34.4187 10.7813C34.4613 10.8667 34.4613 10.9093 34.4613 10.9947C34.4613 11.08 34.4613 11.1227 34.4613 11.208C34.4613 11.2933 34.4613 11.336 34.4613 11.4213C34.4613 11.5067 34.4187 11.5493 34.4187 11.6347C34.376 11.6773 34.376 11.7627 34.3333 11.8053C34.2907 11.848 34.248 11.9333 34.2053 11.976C34.0347 12.0613 33.7787 12.1893 33.48 12.1893Z" fill="#027AFD"/>
</svg>
