<svg width="116" height="48" viewBox="0 0 116 48" fill="none" xmlns="http://www.w3.org/2000/svg">
<path d="M108.133 21.3333C105.5 19.9667 103.4 18.8667 103.4 16.7667C103.4 15.2667 104.667 14.3667 106.833 14.3667C109.367 14.3667 111.633 15.2 113.367 16.2333V10.8C111.298 9.91519 109.082 9.42889 106.833 9.36665C100.5 9.36665 97.6666 13.1333 97.6666 17.2333C97.6666 22.0333 100.9 24.3333 104.433 26.2C107.933 28.0667 109.267 28.8667 109.267 30.8667C109.267 32.5667 107.8 33.5333 105.333 33.5333C102.6 33.4889 99.9693 32.4861 97.9 30.7V36.4667C100.11 37.864 102.653 38.6464 105.267 38.7333C111.4 38.7333 115.3 35.5333 115.3 30.3667C115.333 24.9667 110.767 22.7 108.133 21.3333ZM61.2666 9.59999H53.6666V38.4H59.3333V29.2333H60.4666C67.5666 29.2333 71.9666 25.4667 71.9666 19.4C72 13.2667 68 9.59999 61.2666 9.59999V9.59999ZM59.3333 14.4H61C64.3333 14.4 66.4666 16.3333 66.4666 19.3C66.4666 22.5333 64.5 24.3667 61.0333 24.3667H59.3333V14.4ZM90.1 22.9C92.0333 21.5667 92.9666 19.6 92.9666 16.9667C92.9666 12.4333 89.6333 9.59999 84.2333 9.59999H75.4333V38.4H84.6C91.6333 38.4 94.8333 33.8667 94.8333 29.6667C94.9194 28.171 94.4992 26.6899 93.6405 25.4622C92.7817 24.2346 91.5345 23.332 90.1 22.9V22.9ZM83.8 14.4667C86.0333 14.4667 87.4666 15.8333 87.4666 18C87.4666 20.1667 85.9 21.5667 83.5 21.5667H81.1V14.5H83.8V14.4667ZM81.1 33.6V26.0667H84.7C87.5666 26.0667 89.2666 27.4667 89.2666 29.8C89.2666 32.3 87.5666 33.5667 84.1666 33.5667H81.1V33.6Z" fill="white"/>
<path fill-rule="evenodd" clip-rule="evenodd" d="M48 24C48 30.3652 45.4714 36.4697 40.9706 40.9706C36.4697 45.4714 30.3652 48 24 48C17.6348 48 11.5303 45.4714 7.02944 40.9706C2.52856 36.4697 0 30.3652 0 24C0 17.6348 2.52856 11.5303 7.02944 7.02944C11.5303 2.52856 17.6348 0 24 0C30.3652 0 36.4697 2.52856 40.9706 7.02944C45.4714 11.5303 48 17.6348 48 24ZM32.5 22.9667L25.5 9.6H18.2667C16.6911 9.59119 15.1295 9.89446 13.6718 10.4923C12.2141 11.0902 10.8892 11.9708 9.77356 13.0833C8.65793 14.1958 7.77366 15.5182 7.17176 16.9743C6.56985 18.4303 6.26224 19.9911 6.26667 21.5667C6.30311 23.8314 7.06863 26.0241 8.44967 27.8195C9.8307 29.6148 11.7537 30.9172 13.9333 31.5333V38.4H24.7333V32.6667H26.1C27.8667 32.6667 29.2333 31.3333 29.2333 29.7V24.7667L31.9 24.2333C32.0383 24.2153 32.1699 24.1629 32.2827 24.0809C32.3955 23.9988 32.4859 23.8898 32.5456 23.7637C32.6053 23.6376 32.6324 23.4986 32.6245 23.3594C32.6165 23.2201 32.5737 23.0851 32.5 22.9667ZM23.4333 22.2C21.9333 22.2 20.7 20.9667 20.7 19.4667C20.7 17.9667 21.9333 16.7333 23.4333 16.7333C24.9333 16.7333 26.1667 17.9667 26.1667 19.4667C26.1667 20.9667 24.9333 22.2 23.4333 22.2ZM41.5 24.2333L38.8333 24.7667V29.7C38.8333 31.3667 37.4667 32.6667 35.7 32.6667H34.3333V38.4H29.9333V32.6667H31.3C33.0667 32.6667 34.4333 31.3333 34.4333 29.7V24.7667L37.1 24.2333C37.2307 24.2019 37.3527 24.1416 37.4571 24.0569C37.5614 23.9721 37.6455 23.865 37.703 23.7435C37.7606 23.622 37.7902 23.4892 37.7896 23.3548C37.7891 23.2203 37.7585 23.0877 37.7 22.9667L30.7 9.6H35.0667L42.0667 22.9667C42.3667 23.4667 42.0667 24.1333 41.5 24.2333Z" fill="white"/>
</svg>
