<?xml version="1.0" encoding="UTF-8"?> <svg xmlns="http://www.w3.org/2000/svg" width="347" height="314" viewBox="0 0 347 314" fill="none"><path d="M225.26 234.242L170.436 180.035V189.727L215.654 234.242H225.26ZM211.513 234.242L170.436 193.833V203.525L201.74 234.406L211.513 234.242ZM197.6 234.406L170.436 207.631V217.159L187.827 234.406H197.6ZM223.935 163.937V154.41L186.171 192.026L190.974 196.79L223.935 163.937ZM237.683 126.813L179.214 185.127L184.018 189.891L237.683 136.341V126.813ZM223.769 126.813L172.258 178.228L177.061 182.992L223.769 136.505V126.813ZM63.7685 199.582C63.7685 184.142 53.168 171.658 36.9361 171.658C20.7041 171.658 10.2692 184.306 10.2692 199.747C10.2692 215.187 20.8697 227.672 37.1017 227.672C53.3337 227.672 63.7685 215.023 63.7685 199.582ZM0 199.747C0 178.885 15.2382 162.787 36.9361 162.623C58.6339 162.623 74.0377 178.557 74.0377 199.418C74.0377 220.28 58.7995 236.377 37.1017 236.542C15.4038 236.706 0.165633 220.608 0 199.747ZM141.947 199.254C141.947 183.813 131.347 171.329 115.115 171.329C98.8826 171.493 88.4478 184.142 88.4478 199.582C88.4478 215.023 99.0482 227.507 115.28 227.507C131.512 227.343 141.947 214.695 141.947 199.254ZM78.1785 199.582C78.1785 178.721 93.4167 162.623 115.115 162.459C136.812 162.459 152.216 178.392 152.216 199.254C152.216 220.115 136.978 236.213 115.28 236.377C93.748 236.377 78.3442 220.444 78.1785 199.582ZM228.076 163.937L237.683 163.773L237.848 225.208H273.294V234.078L228.407 234.242L228.076 163.937ZM310.892 175.928H310.727L287.041 234.078H276.275L305.923 163.609H316.358L345.841 233.914H335.075L310.892 175.928Z" fill="#C85239"></path><path d="M167.242 234.435L157.47 234.466L157.246 164.161L167.018 164.13L167.242 234.435Z" fill="#C85239"></path><path d="M342.198 163.445C343.026 163.445 343.854 163.609 344.517 164.102C345.345 164.43 345.842 165.087 346.339 165.909C346.836 166.73 347.001 167.387 347.001 168.373C347.001 169.194 346.836 170.015 346.339 170.672C345.842 171.494 345.345 171.986 344.517 172.479C343.689 172.972 343.026 173.136 342.198 173.136C341.37 173.136 340.542 172.972 339.879 172.479C339.051 171.986 338.554 171.494 338.057 170.672C337.56 169.851 337.395 169.194 337.395 168.373C337.395 167.551 337.56 166.73 338.057 165.909C338.554 165.087 339.051 164.594 339.879 164.102C340.542 163.773 341.37 163.445 342.198 163.445ZM342.198 164.266C341.535 164.266 340.873 164.43 340.21 164.759C339.548 165.087 339.051 165.58 338.72 166.237C338.388 166.894 338.223 167.551 338.223 168.208C338.223 168.865 338.388 169.522 338.72 170.179C339.051 170.836 339.548 171.329 340.21 171.658C340.873 171.986 341.535 172.151 342.198 172.151C342.86 172.151 343.523 171.986 344.185 171.658C344.848 171.329 345.345 170.836 345.676 170.179C346.007 169.522 346.173 168.865 346.173 168.208C346.173 167.551 346.007 166.894 345.676 166.237C345.345 165.58 344.848 165.087 344.185 164.759C343.523 164.43 342.86 164.266 342.198 164.266ZM340.045 170.836V165.744H341.867C342.529 165.744 342.86 165.744 343.192 165.909C343.523 166.073 343.689 166.237 343.854 166.401C344.02 166.566 344.02 166.894 344.02 167.223C344.02 167.551 343.854 167.88 343.689 168.208C343.357 168.537 343.026 168.701 342.695 168.701C342.86 168.701 343.026 168.865 343.192 169.03C343.357 169.194 343.689 169.522 344.02 170.015L344.682 171.001H343.689L343.192 170.179C342.86 169.522 342.529 169.194 342.363 169.03C342.198 168.865 342.032 168.865 341.701 168.865H341.204V171.001L340.045 170.836ZM340.873 168.044H341.867C342.363 168.044 342.695 168.044 342.86 167.88C343.026 167.715 343.192 167.551 343.192 167.387C343.192 167.223 343.192 167.058 343.026 167.058L342.695 166.73C342.529 166.73 342.198 166.566 341.867 166.566H340.873V168.044Z" fill="#C85239"></path><path d="M171.326 13.4502C162.696 4.83725 151.001 0 138.808 0C126.615 0 114.92 4.83725 106.29 13.4502C97.6771 22.0806 92.8398 33.7754 92.8398 45.9683C92.8398 58.1612 97.6771 69.856 106.29 78.4864L153.782 125.996L158.528 121.25L111.032 73.7403C103.678 66.3676 99.5478 56.3794 99.5478 45.9661C99.5478 35.5527 103.678 25.5645 111.032 18.1918C118.404 10.8379 128.393 6.708 138.806 6.708C149.219 6.708 159.207 10.8379 166.58 18.1918L186.593 38.205L191.339 33.4634L171.326 13.4502Z" fill="#C85239"></path><path d="M119.257 26.4182C114.079 31.6074 111.172 38.6382 111.172 45.9684C111.172 53.2985 114.079 60.3294 119.257 65.5186L166.749 113.024L171.495 108.278L124.003 60.7725C120.082 56.8422 117.881 51.5174 117.881 45.9661C117.881 40.4148 120.082 35.0901 124.003 31.1598C127.932 27.2386 133.256 25.0363 138.807 25.0363C144.358 25.0363 149.682 27.2386 153.611 31.1598L173.624 51.173L178.37 46.4314L158.357 26.4182C153.168 21.241 146.137 18.3335 138.807 18.3335C131.477 18.3335 124.446 21.241 119.257 26.4182Z" fill="#F8BA5F"></path><path d="M160.276 119.493L112.77 72.0006C105.876 65.0905 102.004 55.7278 102.004 45.9664C102.004 36.2051 105.876 26.8424 112.77 19.9323C119.681 13.0378 129.043 9.16577 138.805 9.16577C148.566 9.16577 157.929 13.0378 164.839 19.9323L184.852 39.9455L180.11 44.6916L160.097 24.6784C154.446 19.0396 146.79 15.8727 138.807 15.8727C130.824 15.8727 123.167 19.0396 117.517 24.6784C111.879 30.3288 108.713 37.9847 108.713 45.9664C108.713 53.9482 111.879 61.604 117.517 67.2545L165.009 114.751L160.276 119.493Z" fill="#F17C56"></path><path d="M173.102 145.486L240.101 78.4864C244.386 74.2258 247.783 69.1578 250.095 63.5757C252.408 57.9936 253.591 52.0082 253.575 45.9661C253.591 39.9245 252.409 33.9397 250.096 28.3583C247.783 22.7768 244.386 17.7097 240.101 13.4502C231.471 4.83725 219.776 0 207.583 0C195.39 0 183.696 4.83725 175.065 13.4502L179.811 18.1918C187.184 10.8379 197.172 6.708 207.586 6.708C217.999 6.708 227.987 10.8379 235.36 18.1918C239.018 21.8312 241.918 26.1597 243.893 30.927C245.868 35.6944 246.878 40.8059 246.865 45.9661C246.879 51.1263 245.869 56.2381 243.894 61.0055C241.919 65.7729 239.019 70.1014 235.36 73.7403L168.355 140.758L173.102 145.486Z" fill="#C85239"></path><path d="M160.133 132.518L227.133 65.5186C229.709 62.9571 231.751 59.91 233.142 56.5538C234.532 53.1977 235.243 49.599 235.234 45.9661C235.244 42.3339 234.533 38.7358 233.142 35.3803C231.752 32.0247 229.709 28.9785 227.133 26.4182C221.943 21.241 214.913 18.3335 207.582 18.3335C200.252 18.3335 193.221 21.241 188.032 26.4182L192.778 31.1598C194.718 29.2095 197.026 27.6632 199.567 26.6105C202.109 25.5578 204.834 25.0196 207.585 25.027C210.336 25.0202 213.061 25.5591 215.603 26.6126C218.144 27.666 220.451 29.2131 222.391 31.1643C224.341 33.1042 225.888 35.4117 226.94 37.9532C227.993 40.4947 228.531 43.2197 228.524 45.9706C228.531 48.7215 227.993 51.4465 226.94 53.988C225.888 56.5295 224.341 58.837 222.391 60.777L155.387 127.786L160.133 132.518Z" fill="#F8BA5F"></path><path d="M166.621 139L161.875 134.259L228.875 67.2545C231.68 64.4656 233.903 61.1481 235.418 57.494C236.932 53.8399 237.706 49.9218 237.696 45.9664C237.706 42.0111 236.932 38.093 235.418 34.4389C233.903 30.7848 231.68 27.4673 228.875 24.6784C223.226 19.0388 215.569 15.8712 207.587 15.8712C199.604 15.8712 191.948 19.0388 186.299 24.6784L181.553 19.9323C188.463 13.0378 197.825 9.16577 207.587 9.16577C217.348 9.16577 226.711 13.0378 233.621 19.9323C237.05 23.3437 239.769 27.401 241.62 31.8697C243.471 36.3383 244.418 41.1296 244.406 45.9664C244.421 50.8022 243.477 55.5929 241.629 60.0616C239.781 64.5302 237.065 68.5881 233.639 72.0006L166.621 139Z" fill="#F17C56"></path><path d="M82.8156 266.035H75.541V264.025C75.541 260.146 77.2037 257.651 82.6078 257.443L82.1228 250.792C70.5526 251 66.4649 256.751 66.4649 263.887V266.035H62.793V272.963H66.4649V301.369H75.9567V272.963H82.8156V266.035Z" fill="#F17C56"></path><path d="M115.476 278.436C115.476 271.161 110.695 265.342 100.788 265.342C91.0191 265.342 86.1001 271.3 86.1001 278.436V289.036C86.1001 296.172 91.0191 301.992 100.788 301.992C110.488 301.992 115.476 296.172 115.476 289.036V278.436ZM95.6611 278.852C95.6611 274.556 97.1853 272.547 100.788 272.547C104.321 272.547 105.984 274.556 105.984 278.852V288.621C105.984 292.847 104.321 294.856 100.788 294.856C97.3931 294.856 95.6611 292.847 95.6611 288.621V278.852Z" fill="#F17C56"></path><path d="M142.163 266.312C141.193 265.757 139.738 265.411 138.283 265.411C134.888 265.411 132.117 266.935 130.107 271.3H129.969L129.623 265.965H121.378V301.369H130.939V281.97C131.632 276.843 133.779 274.141 137.867 274.141C139.114 274.141 140.292 274.487 141.193 275.041L142.163 266.312Z" fill="#F17C56"></path><path d="M173.371 289.591C182.517 289.591 186.881 285.711 186.881 277.605C186.881 275.111 186.466 272.963 185.634 271.231C187.505 269.499 188.683 267.074 189.029 264.302L184.734 262.432C184.041 263.956 182.655 265.55 180.854 266.658C178.845 265.757 176.35 265.272 173.302 265.272C164.364 265.272 160.138 269.291 160.138 277.605C160.138 281.692 161.177 284.741 163.464 286.75C160.485 288.344 159.03 290.699 159.03 293.055C159.03 295.48 160.208 297.558 162.355 298.944C160.762 300.537 159.93 302.616 159.93 304.971C159.93 309.752 163.325 313.632 173.51 313.632C183.348 313.632 188.96 309.475 188.96 301.923C188.96 296.311 185.704 292.57 176.905 292.57H169.907C167.413 292.57 166.651 292.015 166.651 290.838C166.651 290.214 167.136 289.591 168.036 289.036C169.561 289.383 171.362 289.591 173.371 289.591ZM169.076 277.674C169.076 273.101 170.115 272.062 173.371 272.062C176.697 272.062 177.875 273.032 177.875 277.674C177.875 282.316 176.766 283.147 173.371 283.147C170.046 283.147 169.076 282.316 169.076 277.674ZM176.281 300.399C179.745 300.399 180.646 301.092 180.646 303.309C180.646 305.526 179.607 307.258 173.925 307.258C169.491 307.258 167.69 306.218 167.69 303.724C167.69 302.269 168.036 301.23 168.868 300.399H176.281Z" fill="#F17C56"></path><path d="M221.971 278.436C221.971 271.161 217.19 265.342 207.283 265.342C197.514 265.342 192.595 271.3 192.595 278.436V289.036C192.595 296.172 197.514 301.992 207.283 301.992C216.982 301.992 221.971 296.172 221.971 289.036V278.436ZM202.156 278.852C202.156 274.556 203.68 272.547 207.283 272.547C210.816 272.547 212.479 274.556 212.479 278.852V288.621C212.479 292.847 210.816 294.856 207.283 294.856C203.888 294.856 202.156 292.847 202.156 288.621V278.852Z" fill="#F17C56"></path><path d="M256.071 278.436C256.071 271.161 251.29 265.342 241.383 265.342C231.614 265.342 226.695 271.3 226.695 278.436V289.036C226.695 296.172 231.614 301.992 241.383 301.992C251.082 301.992 256.071 296.172 256.071 289.036V278.436ZM236.256 278.852C236.256 274.556 237.78 272.547 241.383 272.547C244.916 272.547 246.579 274.556 246.579 278.852V288.621C246.579 292.847 244.916 294.856 241.383 294.856C237.988 294.856 236.256 292.847 236.256 288.621V278.852Z" fill="#F17C56"></path><path d="M272.434 265.48C264.813 265.48 260.795 270.676 260.795 279.198V288.274C260.795 296.865 264.813 301.992 271.811 301.992C275.621 301.992 278.67 300.814 281.026 298.389H281.164L281.511 301.369H289.963V249.684H280.471V268.182H280.333C278.185 266.312 275.414 265.48 272.434 265.48ZM280.471 291.877C279.363 293.332 277.492 294.51 274.998 294.51C271.88 294.51 270.356 292.57 270.356 288.344V279.475C270.356 274.972 272.019 273.171 275.275 273.171C277.631 273.171 279.293 274.141 280.471 275.665V291.877Z" fill="#F17C56"></path></svg> 